<?xml version="1.0" standalone="no"?>
<!DOCTYPE svg PUBLIC "-//W3C//DTD SVG 1.1//EN" "http://www.w3.org/Graphics/SVG/1.1/DTD/svg11.dtd" >
<svg xmlns="http://www.w3.org/2000/svg" xmlns:xlink="http://www.w3.org/1999/xlink" version="1.1" viewBox="0 -64 1024 1024">
  <g transform="matrix(1 0 0 -1 0 960)">
   <path fill="currentColor"
d="M512 768q-84 0 -161 -23q-77 -24 -143 -66t-119 -101t-89 -130q36 -71 89 -130t119 -101t143 -66q77 -23 161 -23t161 23q77 24 143 66t119 101t89 130q-36 71 -89 130t-119 101t-143 66q-77 23 -161 23zM764 598q46 -28 83.5 -66.5t66.5 -83.5q-29 -45 -66.5 -83.5
t-83.5 -66.5q-56 -36 -120.5 -55t-131.5 -19t-131.5 19t-120.5 55q-46 28 -83.5 66.5t-66.5 83.5q29 45 66.5 83.5t83.5 66.5q2 2 5 4l6 4q-7 -21 -11 -43t-4 -45q0 -53 20 -100q20 -46 55 -81t81 -55q47 -20 100 -20t100 20q46 20 81 55t55 81q20 47 20 100q0 23 -4 45
t-11 43l6 -4t5 -4v0v0zM512 544q0 -40 -28 -68t-68 -28t-68 28t-28 68t28 68t68 28t68 -28t28 -68z" />
  </g>

</svg>
