<?xml version="1.0" standalone="no"?>
<!DOCTYPE svg PUBLIC "-//W3C//DTD SVG 1.1//EN" "http://www.w3.org/Graphics/SVG/1.1/DTD/svg11.dtd" >
<svg xmlns="http://www.w3.org/2000/svg" xmlns:xlink="http://www.w3.org/1999/xlink" version="1.1" viewBox="0 -64 1024 1024">
  <g transform="matrix(1 0 0 -1 0 960)">
   <path fill="currentColor"
d="M576 253v53q53 30 90.5 97t37.5 141q0 60 -3 112q-3 53 -21 92t-57 61q-39 23 -111 23t-111 -23q-39 -22 -57 -61t-21 -92q-3 -52 -3 -112q0 -74 37.5 -141t90.5 -97v-53q-81 -6 -152 -29q-70 -22 -121.5 -55.5t-81.5 -76.5q-29 -44 -29 -92h896q0 48 -29 92
q-30 43 -81.5 76.5t-121.5 55.5q-71 23 -152 29z" />
  </g>

</svg>
